<svg xmlns="http://www.w3.org/2000/svg" xmlns:xlink="http://www.w3.org/1999/xlink" viewBox="0 0 2259 415.9"><defs><linearGradient id="a" x1="661.14" y1="164.45" x2="449.26" y2="376.33" gradientUnits="userSpaceOnUse"><stop offset="0" stop-color="#30b86c"/><stop offset="0.27" stop-color="#2bb771"/><stop offset="0.58" stop-color="#1eb27e"/><stop offset="0.9" stop-color="#08ac95"/><stop offset="1" stop-color="#00a99d"/></linearGradient></defs><path d="M199.58,415.9q-56.57,0-102-24.32a179.26,179.26,0,0,1-71.51-69.17Q0,277.56,0,216.31q0-60.87,26.12-105.19A175.4,175.4,0,0,1,97.63,43.21q45.39-23.59,102-23.6,42.87,0,76.38,13t56.56,34.59q23,21.61,35.3,47.37t12.25,51.34v2.52H308.38a27.6,27.6,0,0,0-.36-4.14c-.24-1.56-.48-3.07-.72-4.51a75.75,75.75,0,0,0-17.11-39.45Q276,103.2,252.72,93.11T198.86,83Q165,83,136.54,97.79T90.78,142.1Q73.5,171.65,73.49,216.31T90.6,291.25q17.12,30.25,45.76,45.75a129.21,129.21,0,0,0,62.5,15.49q36.75,0,60.53-11.53t35.66-30.8a88.52,88.52,0,0,0,13.33-41.25h71.69q0,25.93-11.71,52.06T334,368.52Q311.27,390,277.58,402.93T199.58,415.9Z"/><path d="M555.2,415q-44.28,0-77.94-18.58a135.52,135.52,0,0,1-52.66-51.17q-19-32.58-19-75t19-74.86a133.05,133.05,0,0,1,52.66-50.64q33.66-18.19,77.94-18.19t77.95,18.19a133.12,133.12,0,0,1,52.66,50.64q19,32.46,19,74.86t-19,75a135.58,135.58,0,0,1-52.66,51.17Q599.49,415,555.2,415Zm0-58.1q23.32,0,40.62-10.73t27-30.23q9.69-19.5,9.7-45.67t-9.7-45.41q-9.69-19.25-27-29.71T555.2,184.65q-23.06,0-40.61,10.47a70.74,70.74,0,0,0-27.24,29.71q-9.71,19.23-9.7,45.41t9.7,45.67a72.19,72.19,0,0,0,27.24,30.23Q532.14,356.87,555.2,356.87Z" fill="url(#a)"/><path d="M734.94,409.51V131.26h71.27V409.51Zm196.5,0V254.15q0-18.6-5.11-33.41a45.53,45.53,0,0,0-17.81-23.45q-12.72-8.64-35.24-8.65-19.92,0-35,9.31a64.27,64.27,0,0,0-23.58,25.8q-8.52,16.51-8.51,37.73l-23.06-14.67q0-35.1,15.72-62.23a115.45,115.45,0,0,1,42.58-42.7q26.85-15.58,59.34-15.59,33.8,0,56.46,13.36a85.14,85.14,0,0,1,34.19,37.47q11.53,24.1,11.53,56.59v175.8Z"/><path d="M1180.61,415.54q-44.55,0-78.47-18.21a131.83,131.83,0,0,1-52.93-51.09q-19-32.88-19-76.64t19-76a128.79,128.79,0,0,1,52.93-49.78q33.93-17.55,78.47-17.55,33.27,0,59,9.82t43.1,26.07a117.42,117.42,0,0,1,26.59,35.63q9.16,19.4,9.17,38.52v2.09h-70.74a19.66,19.66,0,0,0-.26-3.14c-.18-1.05-.35-2.1-.53-3.14a50.33,50.33,0,0,0-10.48-23.45q-8.39-10.62-22.4-17t-34.19-6.42a81.13,81.13,0,0,0-39,9.43q-17.55,9.44-27.9,28.17t-10.35,46.76q0,27.78,10.35,47.17t27.77,29.6q17.43,10.22,39.17,10.22,22.8,0,37.34-6.94T1239,330.78a57,57,0,0,0,8.39-26.07h71q0,19.14-8.91,38.78a112.44,112.44,0,0,1-26.33,35.89q-17.43,16.26-43.1,26.2T1180.61,415.54Z"/><path d="M1448.11,414.76q-29.61,0-49-9.83t-30.66-26.07a101.78,101.78,0,0,1-15.72-36,178.92,178.92,0,0,1-4.45-39.43V131.26h71.53V284.8a126.68,126.68,0,0,0,4.32,33.93,48.26,48.26,0,0,0,16,25.15q11.66,9.57,33.15,9.57,20.43,0,35-11.93a79.34,79.34,0,0,0,22.54-30.26,92.45,92.45,0,0,0,8-37.2l23.58,16.5a141.42,141.42,0,0,1-8,47.82,123.37,123.37,0,0,1-22.8,39.56,105.67,105.67,0,0,1-35.89,27Q1474.58,414.76,1448.11,414.76Zm90.66-5.25V131.26h71.53V409.51Z"/><path d="M1723.21,0V409.51H1653V0Z"/><path d="M1862.59,415.28q-30.91,0-54.62-9.83t-37-28.29q-13.23-18.48-13.23-44.67,0-28.83,15.59-47.43t42.19-28.56q26.58-9.94,58.81-12.84,47.17-4.71,65.77-8.9t18.6-13.89v-.52q0-17.82-16.11-27.51t-45.46-9.7q-30.92,0-47.42,11t-16.51,34.32h-70.48q0-33,17.55-55.68t48.08-34.58q30.52-11.93,69.3-11.92,35.9,0,66.16,10.87t48.47,32.75q18.21,21.89,18.21,54.89V350q0,10.21.65,19.78a92.1,92.1,0,0,0,2.76,17.42,58.27,58.27,0,0,0,6.28,14.41,39.64,39.64,0,0,0,6,7.86h-70.48a45.32,45.32,0,0,1-5.24-7.33,69.68,69.68,0,0,1-6-12.58,113.85,113.85,0,0,1-4.07-17.16,131.78,131.78,0,0,1-1.44-20.57l14.41,10q-7.61,16.25-23.84,28.3t-38.51,18.6A171.48,171.48,0,0,1,1862.59,415.28Zm17.82-55.55a104.36,104.36,0,0,0,39-7.2A64.27,64.27,0,0,0,1948.53,330q11-15.33,11-39.44V255.19l17.55,19.13a233.17,233.17,0,0,1-40.35,10.35q-23.33,4.06-47.16,6.42-30.13,2.88-45.19,10.35t-15.07,25q0,16.5,12.71,24.89T1880.41,359.73Z"/><path d="M2069.05,409.51V131.26h71.53v93l-16.25-8.91a128.5,128.5,0,0,1,9.83-34.72,97.46,97.46,0,0,1,19-28.29,83.69,83.69,0,0,1,28.56-19.13q16.77-6.94,38.25-6.94,17,0,26.86,2.62t12.18,3.93l-12.84,65.24q-2.61-1.83-10.61-4.59t-21.35-2.75q-21.22,0-35.37,7.21a61.08,61.08,0,0,0-22.66,19.25,77.53,77.53,0,0,0-12.06,26.46,122.07,122.07,0,0,0-3.53,29.09V409.51Z"/></svg>